/* XPM */
static char *_9e23504543a42e6dc570cc55e16532aF7ZwWQwg8ysbnpoF[] = {
/* columns rows colors chars-per-pixel */
"64 64 77 1 ",
"  c #040404",
". c gray2",
"X c #060606",
"o c #070707",
"O c gray3",
"+ c #090909",
"@ c gray4",
"# c #0B0B0B",
"$ c #0C0C0C",
"% c gray5",
"& c #0C0C0E",
"* c #0D0D0F",
"= c #0E0E0E",
"- c gray6",
"; c #0E0E10",
": c #0F0F11",
"> c #101010",
", c #111111",
"< c #101012",
"1 c #111113",
"2 c gray7",
"3 c #131313",
"4 c #121214",
"5 c #131315",
"6 c gray8",
"7 c #151515",
"8 c #141416",
"9 c #151517",
"0 c #161616",
"q c gray9",
"w c #161618",
"e c #171719",
"r c #181818",
"t c #191919",
"y c #18181A",
"u c #19191B",
"i c gray10",
"p c #1B1B1B",
"a c #1A1A1C",
"s c #1B1B1D",
"d c gray11",
"f c #1D1D1D",
"g c #1C1C1E",
"h c #1D1D1F",
"j c #1E1E1E",
"k c gray12",
"l c #1E1E20",
"z c #1F1F21",
"x c #202020",
"c c gray13",
"v c #202022",
"b c #212123",
"n c #222222",
"m c #232323",
"M c #222224",
"N c #232325",
"B c gray14",
"V c #242426",
"C c #252527",
"Z c #252628",
"A c #262628",
"S c #262729",
"D c #272729",
"F c #27282A",
"G c #28282A",
"H c #28292B",
"J c #29292B",
"K c #292A2C",
"L c #2A2A2C",
"P c #2A2B2D",
"I c #2B2B2D",
"U c #2B2C2E",
"Y c #2C2C2E",
"T c #2C2D2F",
"R c #2D2D2F",
"E c #2D2E30",
"W c #2E2E30",
/* pixels */
"<<48eaglvMCCCCCDFFDDDJLLLLLLUUYYDDJLLLJDDCCMMMMCvvvllgauue844<:=",
"<<48euggglvMMMMCFDDDDFLLJJJLLLLLDDJJLLJDDCCCMMMMvvvllgaaue844<:=",
"<<48euaglvMCCCDJDDDDDFJLDDFFJJJLJDJJLLJDDDDCCMMvvvvllggauu884<:=",
"<448euaglvCCDDJLDDDDDFFJDDDFFJJLJJJJLJJDDDDDCMvvllvlllggaue844:=",
"448euaggglvMMCDDDDDDFFFJFFJJLLLLLJJJJJDDDDDDCMvvvvvvllggaue884<:",
"88eeuagllvMCCCDJDDFFJJJJJJLLLLUULJJJJJDDDDDDCCMMvvvvllggaue884<:",
"eeuuaglvMCDDDDJJDFFLLLLLJJLLLLUULLJJJJDDDDDCCCCCMMvvllgagaue84<:",
"uuuagllvvMCCCCCDDFLLULLLFJJLLLLLYLJDJJDDJDCCCCCDMMMvlggagaue88<:",
"eeuaglMMlvCDDDDDJJLUUULLLLJFJLUEYLLLLLJDDDDDCCMMMvllggglaueee8<:",
"euuaglMMMCJJJJJJJJLUULLLLLJFJLUEYYLLLLDDDDDDCCMMvvlllgggauuee8<:",
"uuuaglvMCDJLJJDJJJLLLLLLLLJJLLYEYYLLLJDCJJDDDCMMvvvvllggaauee84<",
"uuaaglvMMCDJDDDDJJLLLLLLLLLLLLYYEYYLLLDCJJJDDCMMvvvvvlgggauue84<",
"uaaggvvMMMCDDDJJJJJJJLLLLLLLLUYYEYYLLLJDJJJDDCCMvvvvvlgggauuue4<",
"aaaglvvMMCDDDJLYJJJFJJLLLLLUUYYYYYLLYLJJJJJJDCCMvvvvvllgggauue84",
"aaaglvvMMCCCCDJLJJFFFJLLLLLUYYYYYLLLYYLJJJJJDCCMMMvvlllllgauue84",
"aagglvvMMMCMMMCDLJFDFJLLLLUYYYYYLLLLYYYLJJJJDDCMMMvllllllgaaue84",
"aaaggllllvvMCCDDCDJJLLLJJJJJLLLYJLLLLLLJLJDDDDCMvvvvvvvvlggaue88",
"uaaggllllvvMCCDDCDJJLLLJLLYYYYYYJJLLLLJJJJDDDDCCMMMvvvvvgggaue88",
"uaaagllllvvMMCDDCDDJJJJJJJLLLLLLJJLLLLJJJDDDDDDCMMMMvvvvgggaue84",
"uuaagglllvvMMCCCCDDJJJJJJJJJJJJDJJJLLJJJDDCDDDDCCMMMMvvvggaaue84",
"uuaaggllvvvMMMCCDDDDDJJLLLLLLLLLJJJJJJJJDDCCDDDCCCMMvvvlgaaue844",
"uuuaggglvvvvMMCCDDDDDJJLJJJJJJJJJJJJJJJJDDCCDDCCMMMvvlllaaaue84<",
"uuuaagglvvvvMMMMDCCCDDJLCCCDDDDDJJJJJJJJJDCCCCCMMMvvllggaauue84<",
"uuuaagggvvvvMMMMDCCCDDJLDDDJJJLLDJJJJJJDJDDCCCMMMMvvlgggaauue84<",
"88euagvvglvMMMMMMCCDDDDDDDDDDDCCJJJJJJDDCCCDCCCCvlgaagaauee844<<",
"eeeuagllllvvMMMMMCCDDDDDCCDDDDDDCCDDDCCCDDDDCMvvvlggggaaeee844<<",
"uuuuaaggllvvMMMMMCCCDDDDMMCDDDJDDDDDDDDCDDDCCMvllgggggaueee844<<",
"eeuuuagglllvvvMMMMCCDDDCMCCDDDDDDDJJJDDDMMMCMMMMggggggaeee884<<<",
"eeeuuaglllllvvMMMMCCCCCCCCCDDCCCMCCCCMMMMMMMMMvvggggggueee884<<<",
"88eeuagllllllvMMMMMCCCCCCCDDCCCMCCCCCCMMCCMMvlggggaagauuee844<<:",
"eeeeuaaglllllvvMMMMCCCCCMCCCCCCCDDDDDCCCMMMvvlgglgaaaauue8844<<:",
"uuuuuuuallgglvvMMMMCCCCCMMMCCDDDMMMMMMMvvvvvvvlllgauaaaue8844<::",
"uuuuuuggggkvvvvvlvMMCDDDCMMMMMMCCCCCCmvvCCvvvvvvguuuuuq8888<<===",
"<<8888uugggkggggvvMMCCCCCMMMMMMCCCCCmvvvvvvvvvvvguuuuuq88886<===",
"<<88quuuppggggggvvvMMMvvMMMMMMMMvvCvvvvkvvvvvkgguuuuuuq88886<<==",
"<88uuuuuppggggggllvvvvvvMMMMMMMMvvvvvvvvggvkkggpuuquuuq88886<<==",
"<<88uuuqugggggggggllvvMMMMMvvMMMvvvvvvvkpggggguuuuquuu88886<<<-=",
"688quuuuugggggggagllvMMMMMvvvvMMvvvvvvkggggggppuuuqquu888886<<-=",
"88qquuuuuupggggggglvvvvvMMvvvvMMvvvvvvkgggggggpuuuq8uuq886<<<<--",
"888<<888uuupppppllvvvvvvMMvvvvMMvvvvvkggkggggggguuq8uuq8<<<<<<<-",
"<<<<8qq8uuuuugggggglllllllllllllkkvvgggggpuuppuu888888qq<<<<<<==",
"<<<68qq8uuuuupggggggllllllllllllgggggguuggppgpuquqq88888<<<<<===",
"<<<68888uquupgpgggggglllllllllllggkkgggggggggguuuuuq8886<<<<<===",
"<<<<888888quupggaaggggllllllllllggkkkkgggggggguuuuq88888<<<<===#",
"<<<<8888888uuuppaaaggggggggggggguggggpuuggppgpuu88888888<<<<==##",
"<<<<8888888uuuuuaaaaggggggggggggggggggppppuupuuu88888888<<<-==##",
"<<<<88888888uuuuuaaaagggggggggggggggkggguuuuuuq888888<<<---===##",
"<<<<8888qq88uuuquuaaaaggggggggggppgggpuuuuuuuuu888886<<<======##",
"====<<<8888uuuuuquuuuuuuuuuuuugguupppuuuuuuuuuq8886668<<======##",
"====<<<<8888quuuuuuuuuuuuuuuuuuuuuppppuuuuuuuuq888<666<<=====###",
"=====<<<<<8888qqquuuuuuuuuuuuuuuuuuuuuuuuu8quu8886<<<<<<=====###",
"-=====<<<<68888q8quuuuuuuuuuqqqquuuuuuuuuq88qq888<<<<<<<====####",
"=====--<668888qq88quuuuuuuqqqqq8uuuuuuuu8888q88<<<<<<<<<=#######",
"======-<<6688888888qqq8888888888qqqq8q888868886<<<<<<<<-########",
"##====<<<<<<<8886888888888888888888888888888886<<<<<<<<-#######X",
"###===<<-<<<<<66688888886888888888888888886888<<<--<<<<=#####X#X",
"=======<<<88<<8888888q88668888888888888686<<<86<-=======####XXXX",
"##======<<88<<888<688888668888888888886686<<886<-=======####XXXX",
"###=====<<<<<<<8<<<<88888888888888888888<<<888<<<======######XXX",
"####====<<<<<<<<<<<<8888<888688888888886<<<888<=<======######XXX",
"O####=#=-<<<<<<<<<<68888<<68886886888<66<<<888<========#X###XXXX",
"XO######=-<<==<<<<<<8888<<6688666688<<6<<<<686<========#XX##XXX ",
"XX######==-====<<<<<<8<6<<<66886688<<<666<<<<<<<======##XXXXXXXX",
"XXX#####==-====<<--<<<<<<<<66886686<<<6<8<<<<<<<======##XXXXXXXX"
};
