/* XPM */
static char *_6c1c4ca9a204928e4c5b9498906c5a5AC2FWazWxUz8rXHf[] = {
/* columns rows colors chars-per-pixel */
"64 64 140 2 ",
"   c #0C0C12",
".  c #111216",
"X  c #15151B",
"o  c #19161D",
"O  c #17181D",
"+  c #191A1F",
"@  c #1C1D23",
"#  c #211E25",
"$  c #1F2025",
"%  c #212126",
"&  c #282327",
"*  c #24242B",
"=  c #29262C",
"-  c #27282D",
";  c #292A2E",
":  c #2C2C33",
">  c #2F2F39",
",  c #312E35",
"<  c #2F3035",
"1  c #313136",
"2  c #34343B",
"3  c #39363C",
"4  c #37383D",
"5  c #393A3E",
"6  c #413B3F",
"7  c #363640",
"8  c #3C3C43",
"9  c #423E45",
"0  c #493F46",
"q  c #3F4045",
"w  c #414246",
"e  c #4A4247",
"r  c #45454B",
"t  c #49464C",
"y  c #47484D",
"u  c #49494E",
"i  c #51474F",
"p  c #464751",
"a  c #484651",
"s  c #464952",
"d  c #4D4E52",
"f  c #484B54",
"g  c #494C55",
"h  c #4A4D54",
"j  c #4B4E55",
"k  c #4A4D56",
"l  c #4B4E57",
"z  c #4C4C54",
"x  c #4D4D55",
"c  c #4E4F54",
"v  c #4C4F56",
"b  c #4E4E56",
"n  c #4F4F57",
"m  c #4B4C53",
"M  c #4C4F58",
"N  c #4F4F59",
"B  c #504F54",
"V  c #514E54",
"C  c #4F5054",
"Z  c #4F5055",
"A  c #4D5057",
"S  c #4F5055",
"D  c #4D5059",
"F  c #4E5158",
"G  c #4E515A",
"H  c #4F525B",
"J  c #515055",
"K  c #505155",
"L  c #505156",
"P  c #525156",
"I  c #515256",
"U  c #515257",
"Y  c #535257",
"T  c #525357",
"R  c #515156",
"E  c #505058",
"W  c #515159",
"Q  c #525358",
"!  c #52525A",
"~  c #53535B",
"^  c #545358",
"/  c #545359",
"(  c #535459",
")  c #55545A",
"_  c #54555A",
"`  c #56555A",
"'  c #56555B",
"]  c #55565B",
"[  c #50535C",
"{  c #51545D",
"}  c #54545C",
"|  c #55555D",
" . c #57565C",
".. c #56575C",
"X. c #56565E",
"o. c #57575F",
"O. c #53545B",
"+. c #58575C",
"@. c #5A575E",
"#. c #57585D",
"$. c #57585D",
"%. c #59585D",
"&. c #58595E",
"*. c #595A5F",
"=. c #595A5E",
"-. c #575761",
";. c #575A63",
":. c #565960",
">. c #585860",
",. c #595961",
"<. c #5A5B60",
"1. c #585B62",
"2. c #5A5A62",
"3. c #5B5B63",
"4. c #5B5C61",
"5. c #595C63",
"6. c #5C5D62",
"7. c #5E5D63",
"8. c #5D5E63",
"9. c #595C65",
"0. c #5B5E67",
"q. c #5C5C64",
"w. c #5D5D65",
"e. c #5E5F64",
"r. c #5E5E66",
"t. c #5F5F67",
"y. c #5B5B62",
"u. c #5E5E68",
"i. c #5F6065",
"p. c #5D6069",
"a. c #606166",
"s. c #616267",
"d. c #616166",
"f. c #606068",
"g. c #616169",
"h. c #63636B",
"j. c #65656D",
"k. c #67676F",
"l. c #62626A",
"z. c #676771",
/* pixels */
"w r u r w u r 1 ' ' L L ' L d ' x | | E E x y y 8 * <.y E m r x ( s x ( A x 8 + y s r r u u r u x x x E E s y w E w 4 : w 8 w w ",
"w r r r w u w : *.+./ / ' L d / m x x s E M M | 8 * | y E x s | L d L d r s w $ s A d h L A d E s y y s s t y y s y 8 * y w y p ",
"r w r r r u w : ' L B L L d d d E x y y y w r E 7 : E y x s y x L L L u r L r + d ( L A E L A | E x s x x x x E s x w @ y 8 8 8 ",
"w w w w w t 9 ; / u u d L L d u y y w y f s x e.7 : E s E E x E #.E L d L a.u X h ( E x A h u L x s y s s t y s x >.y @ f w 8 8 ",
"r w w w w t w , 8.d d / ' | ' s x x x E <.| | e.> : s s E | E E d u u r r L w X d ' ' E ( A d ' | E E | E x s s y E 8 @ s s y w ",
"1 : : , : 1 : # u 4 4 8 2 3 7 : 4 8 7 7 7 4 : 2 * % 7 8 8 8 4 2 1 : : : % - ; O 2 8 8 8 q 8 8 w y y y t y 8 7 4 4 p 7 % w y w w ",
": : : : ; : : * 2 - : : @ @ - $ X % % @ * : : : 4 2 8 w 7 7 2 : 2 @ $ : * % ; * % - * - : : ; : : : : : : * @ @ . : % @ % : * : ",
"a.e.a.a.<.8.a.<.*.d *.*.q q L L s | E s x 3.e.e.<.| e.g.<.e.<.E x : ; r u r w q w y r r d s r y s s s x x s y y 2 E | g.| g.e.j.",
"E x x x x E E | E x x E 4 7 e.s y x E E m t s s x E | | | | | E ' 1 * 5 A x u d u u u u u s s s x s s x s y m / 7 E e.| E x x E ",
"x x s s s s s s s s x x 2 4 e.s y s x E x x x E x E E E E | | | *.1 % 2 d d y y u u u u u s s s s s s x s s x / 2 x | B x x x x ",
"h h h h h s y r y s s x 2 2 9.s s s m x x m s s x E x x x E | | 8.2 $ 1 h h r r y y u u u u s s s s s x s s x E : y B m x E x x ",
"s s h F F x h s y s h A 2 2 ;.r s s s s m s y w B E x x x E | E *.2 * 5 d h r r r y y u u u u u s s s s s s x E : y x x E / E x ",
"r r f M F M h s s h M F 2 2 ;.s s y t s M E E x B E E x x E E f d 1 - 8 A u r u r r r y y y u u y s s s s x x x 2 y E x E | E x ",
"p s h h M h f f f M F { 2 2 9.f s s s m x E x x x E E E E E x y w : - 8 x y w u r r r r r y y y y t s t p s x s : y E x M E x x ",
"f h h h h l h h h F F { 2 7 0.l x x x x x x x s x E E E E | E p w ; - 8 x u r u r r r r r r r r y t t y y s s y : w E x M E x x ",
"s s s f h h h h s M F [ 2 2 p.F x x x E E E | | E E E x E | E s y : % 8 A d y h y y r r r r r r y t t y y s s y * r E M M E E E ",
"s x x s s x x x s E <.3.: 2 e.x t s s x x E E E E | x E x p x f s ; % 8 L d r h A u r w r u r w w r r w w y r w % y ( L L L L u ",
"x E | | E | E x >.<.M s : 4 j.t.E E E E E x x x E | | <.>.x x y y 1 ; q L d u d A d L A d L d u y r w y L ' h 8 @ s 4.( A L ' #.",
"8 y f x m s r 8 2 7 : * % * w 8 4 4 4 4 4 4 4 4 : 2 2 7 2 : > * - + O - < < : 1 5 8 q 8 2 2 5 2 2 2 1 1 8 q 4 : $ 7 w 5 q r 8 8 ",
"% * : : : * % @ % : @ @ 2 * : : : : : : : : : : : > : : @ @ 4 2 2 1 2 5 8 8 8 8 2 4 2 : @ @ 1 1 2 2 < ; * - : < * : : - : - X % ",
"<.| | +.| } | | | e.w 8 j.E <.<.| | | | / E E E s x x y : 2 | | x | | | | | | | <.e.<.E 7 8 g.<.4.*.' x u u L #.E #.8.*.( 2 - *.",
"x m s y y y s M s E 4 2 g.y s s s s s m x x x x x E | x : 2 | E y s s s s t y y y x x x 2 4 3.x L s y s d h u u L d E E | 5 % e.",
"s y y y y r p x 8 y 4 4 g.w y w y s s m x E E E s s E x : 2 E s f s p p s p y y r E [ | 7 7 t.s d d x ( ' A s u h w w q ( q @ d ",
"y y y s p y y s w y 4 4 g.w x s x x x x x x x x x s x x 2 7 <.s x p r p f p y y f >.>.<.7 4 t.y s A #.*.A r y d r u A q h 8 @ d ",
"y s s p y s p w 8 s 4 7 <.y E p s t s x x s x E s s x e.@ 8 <.x M x x M x p p f x [ e.t.4 4 t.s x ( ' L h h d d d L u y d 8 X y ",
"E E [ E E E x s w y : > <.x | s t w w y s y y y s s s <.* w e.E x f s f s y y s M M | >.> : | y s L E x s s h s y d y y d 8 X w ",
"E | | E E E x f w x : : g.| E x s y w s E E E x x s s | * 8 <.x E E E x x s s x E E | <.4 : | E L ' | E A L L L d L d x L r + 8 ",
"<.e.e.<.<.<.| E w E > : g.E y x r w 9 w s m s s x s x <.: w e.| E x x x s s s s E x x | 2 % x E L ( L h u u d d d A x A E u @ 4 ",
"e.g.g.e.e.e.<.| M E : % <.| y x M E M x x x x x s s M >.4 8 <.| ( ( ( L x A L L ' | ' <.2 % s ' i.e.*.E d L ( ( d h h d x h % 2 ",
"e.t.t.e.e.e.e.q.h.| : % e.j.| <.x E E x x E E [ | | <.3.8 7 E s L ( ' E L L E L s A d ' 7 : L *.<.<.' d d d x d *.( A d d d - 1 ",
"f x x s s x E x E w : % E <.E E | | | E | <.<.<.E x M E 8 4 y 7 < 2 4 2 2 4 2 1 ; : ; 2 - $ 8 8 #.*.| E L E L d h w 8 8 8 r % : ",
"@ @ @ @ @ % % % * * * @ 4 4 2 4 2 2 : % * * * @ @ X @ % @ X * + + $ % % % * % @ $ * O % @ X ; % * ; : : ; ; - $ @ X X + % 2 @ - ",
"| M f f x M M x f x f f f E s @ : 7 8 8 q 8 5 8 8 5 8 4 3 2 8 @ w <.| E | s s m x x x s y w 8 8 8 9 w y y t y y E 2 % E y E | | ",
"f s s f M E M M x E M E M [ x @ y L L d L x s d d u m r t w m = E z.e.[ } f f M p s f x x x f f s s s s s x x E x 2 % E w x x s ",
"x M x x x f s p f x x E x E f @ w h h u s u r u t w t w y 9 r % p h.<.x E E E E f m x M x f s p m s s s s m x x x 7 * E s x h y ",
"E E E x f p y y s f p m s M f * 8 u h u d h t u u r t r t w t % 2 | [ m [ | [ s m x x x f p r w w w y s m s y y x 8 : | x | E x ",
"x x x x s s x x s s y s t x E : 8 h L L ( L s m u r u t m w t % 4 | | x | [ x w w y t p s p y y w r u d A d h u h w ; d y ' L L ",
"E E x f m x x B s y w y y m x : 8 u d d x s w w t w w w t 9 w @ 8 | x y x x x s y y s s s s s s u u u s d d L L x u : u r E d L ",
"| E x x x x x s s y y s y s s : r L L d L d u s m r t r m y t % 7 x r w s s x x x x x s s s s s h s u u s d A L x x < u r E s x ",
"x s s x E / E x x x s E s s s : r x x s x x d L t w w 9 r 9 w @ 8 x r r x s s x B x x m s s s h u h d x A x d d u h : r r L y d ",
"s y x y w d L L L L x y y L r ; w L r ' y A / r d t r u 9 w t @ 5 8 d d h A A x u d d d d L A u d r u d d L u A u L : d w u u r ",
"h y u u u ( E d d x x u u L r ; y ' u ' y d E u d u t B w t t % u r y u s x x L L ' ( A d x d s L r u r u d u L d u * d u u u u ",
"r r y s A ( ' A ' ' ' A h d w - w d y L u s d u m m m B t w w @ u r 8 r A A x ' h A L x d x A A ' d T d L d r r L q $ L ( h y d ",
"w d s h d u d A d s d y w w 4 % q h d ( ' ( L / ' | / ' B m t : 8 q 2 w d r r s y u u u u s u u w 5 r w d A A L d 5 - d L u r u ",
"$ - X + % O @ @ @ + @ @ + @ +   $ ; - $ ; : = : : : = = = * * . @ % X @ @ . @ % % $ @ @ @ @ + X + . @   + @ - : % @ . - - - % % ",
"5 5 @ - w 5 8 2 w 8 8 8 8 q w 5 5 8 1 X * 1 : 1 : 2 : : , , 2 : 2 5 < 2 ; - r w L d u d d d d d - - w < 5 < 1 1 1 2 2 2 2 5 2 2 ",
"d ' 1 w i.' *.' *.L ( ' L L ( d d L u @ 5 h t t w m w w m m L x u d r h 2 5 h.L u u u u u d ' a.@ ; T r ` u C u w w y w w r r r ",
"5 d : 2 w < 4 8 w 8 w r w w r w 8 r w + 8 ' m t r L y u B d / E L L d L 1 2 8.8 8 8 q 8 2 5 u 4.: 1 ( 5 r 4 r u w 8 r 8 w w w r ",
"w r < q 5 5 w w y r r w w w w w s s y @ 4 y 8 y s s y m E | E d d x u d 2 2 ' y u r w r w 8 w h 4 ; A u w w w t u t y r w w w 9 ",
"w r < r q 5 w w r r r w w w w y s s p @ 7 s 8 y y y y s x x x s d A h A 4 1 ( r y w w r w 8 w s 4 ; d y r w w r s t t t t t w w ",
"w r < r w 8 w w w w r r y y y y y s s % 8 s 8 y p s x x x x x x x L x E 4 2 L r y r r y r q w u 5 ; h r r r w w r w w w w w w w ",
"w w : r w 8 r w w r r y s s s s y x s % 8 x 8 w s x M E B x x E d L L ' 5 1 L r y r y u y w r u 2 ; x y r r w w w 9 9 9 w w w w ",
"r w ; w w 8 r r r y u u s s s s y x s % 8 x 8 8 y y y s x x x s d L L #.5 < L y y r y y y r r r < ; ( s w w w r w w w w e t t t ",
"y w ; r r q r r u u u s s s s s s x s # 7 M 8 8 w w y s x x x s L ( ( *.5 : x u y r r r r r w w : : #.d r r r t w w w w e t w w ",
"y w ; u u w t r u u u s s s x x x E s @ 7 E w w w y s m x M E E ' #.| <.4 ; d u u u y r r r w w : : | d y u u t w w w w w w w w ",
"r w : d B r y r u u u u s x x x E | x @ 7 E r r 8 w m x x x E | *.<.*.<.4 * u y A x s y y y r w : ; ' d u d m y u t t t t t e w ",
"9 5 3 w 9 8 u r w t r s y y x w s y 4 : 4 8 8 w r : y y x E E x u u y w : : 8 2 q 8 1 2 7 2 1 8 % * : : : : : : , : 2 9 5 8 8 8 ",
"& & # = & & = @ + ; ; ; : : 2 : : : @ @ % = * * %   - * * % # % % % % - @ @ ; X + - * % - * % $ + @ $ $ @ @ @ @ - % @ o # & * * ",
"e e e t t t t 1 4 ' E h x x { { E | E x E / E E 8 * y y y w w s y r r d u d h : 4 L ' y u L d r r y s d h h d d B x w : B m m u ",
"6 e 0 e y V u ; 8 a.*.d E E ( | E <.| | <.| E | 7 % y s s y y E h u y d d x r @ 8 ( ' r w s d h r y y u u u t t w s w # +.m m w ",
"9 e 0 e t B V : y h.| d +.| ( ( E >.| | | E E | 8 * s f x p y s r y r s u x y @ r A d r r r y d u y y r r w w 9 5 u w o +.w t w ",
"0 e 0 w e t t : m 4.A d +.| { E E | E E | E x | 7 * s s s p y y r u u u r h r + r y r y u w 8 y w w w w r y y r w x r o B 9 y u ",
"e e 0 t t t t , L | x ' <.| <.| >.<.| | <.E x | 2 : E f s x x x h E L x u A y O y r w y x u w r w w w y d L L L L / y # m 9 t m ",
"e e 0 i u t t 1 / L x *.| x ;.{ | | E E <.E s M : : <.x y s x m y A x d u L u O s u w r x A u y d h u h x L B x d m 8 # t 9 w y "
};
