/* XPM */
static char *b6be081d015e4382eae6dac7c1e1d122EL3MbY6BJ2rUha4A[] = {
/* columns rows colors chars-per-pixel */
"64 64 247 2 ",
"   c #271F1A",
".  c #3B2C27",
"X  c #352F2A",
"o  c #49382D",
"O  c #533B2D",
"+  c #5B3A2B",
"@  c #453A34",
"#  c #4C3B33",
"$  c #4A3837",
"%  c #553D33",
"&  c #5C3E33",
"*  c #533F39",
"=  c #5A3E3A",
"-  c #643E2E",
";  c #69382A",
":  c #633D33",
">  c #683F34",
",  c #4E433B",
"<  c #4B443B",
"1  c #544235",
"2  c #5D4335",
"3  c #53433B",
"4  c #5C443B",
"5  c #5C4A3C",
"6  c #56483B",
"7  c #64412E",
"8  c #6D462F",
"9  c #77452F",
"0  c #644334",
"q  c #6C4534",
"w  c #6C4935",
"e  c #63463B",
"r  c #6B453A",
"t  c #644A3C",
"y  c #6C4B3C",
"u  c #654836",
"i  c #734533",
"p  c #7B4634",
"a  c #724934",
"s  c #7B4B35",
"d  c #72463A",
"f  c #734B3B",
"g  c #7B4D3B",
"h  c #69513E",
"j  c #74513E",
"k  c #7D523D",
"l  c #7F5A3F",
"z  c #4B4642",
"x  c #544542",
"c  c #5A4541",
"v  c #564A43",
"b  c #5B4B43",
"n  c #5D4C4A",
"m  c #554B4A",
"M  c #5E514A",
"N  c #5C5553",
"B  c #644642",
"V  c #634C43",
"C  c #6C4D42",
"Z  c #644E49",
"A  c #6A4E49",
"S  c #6A4741",
"D  c #744D42",
"F  c #7A4E44",
"G  c #744F4A",
"H  c #665145",
"J  c #6C5244",
"K  c #64524B",
"L  c #6C534B",
"P  c #6D5A4C",
"I  c #6E5946",
"U  c #745343",
"Y  c #7C5443",
"T  c #7D5946",
"R  c #73554B",
"E  c #7B554A",
"W  c #745A4D",
"Q  c #7B5B4C",
"!  c #745945",
"~  c #6B5651",
"^  c #6D5B54",
"/  c #655554",
"(  c #725652",
")  c #735C53",
"_  c #7C5D53",
"`  c #725D5A",
"'  c #7A5A58",
"]  c #7E614E",
"[  c #756155",
"{  c #7D6254",
"}  c #74635A",
"|  c #7C645A",
" . c #7D6A5C",
".. c #6D6357",
"X. c #6D6362",
"o. c #7C6B64",
"O. c #776766",
"+. c #7D7068",
"@. c #6F5E64",
"#. c #824D3C",
"$. c #864B36",
"%. c #83533C",
"&. c #8A553D",
"*. c #84593D",
"=. c #8C5A3D",
"-. c #8B5135",
";. c #925B3D",
":. c #97563A",
">. c #884C33",
",. c #91623E",
"<. c #8F613F",
"1. c #AD653D",
"2. c #835543",
"3. c #8B5643",
"4. c #855A44",
"5. c #8B5B44",
"6. c #83564A",
"7. c #8B574C",
"8. c #835B4B",
"9. c #8B5C4B",
"0. c #935C44",
"q. c #925C4C",
"w. c #975B45",
"e. c #835D53",
"r. c #8A5E52",
"t. c #865D59",
"y. c #945E52",
"u. c #804F40",
"i. c #A15F45",
"p. c #8D6146",
"a. c #84624D",
"s. c #8C634B",
"d. c #886445",
"f. c #936346",
"g. c #9A6445",
"h. c #93634C",
"j. c #9B654C",
"k. c #95694D",
"l. c #9B6B4C",
"z. c #9C6945",
"x. c #9E714D",
"c. c #846353",
"v. c #8B6453",
"b. c #856956",
"n. c #8C6A55",
"m. c #83655A",
"M. c #8B645A",
"N. c #856A5B",
"B. c #8C6B5B",
"V. c #936554",
"C. c #9B6652",
"Z. c #946B54",
"A. c #9C6B53",
"S. c #93655A",
"D. c #936C5B",
"F. c #9C6C5B",
"G. c #9B675A",
"H. c #8E715C",
"J. c #957156",
"K. c #9C7154",
"L. c #94715D",
"P. c #9C725B",
"I. c #9D785E",
"U. c #A36444",
"Y. c #A4664A",
"T. c #A26B4C",
"R. c #AC6C4C",
"E. c #AB6D44",
"W. c #B46D4B",
"Q. c #A4724C",
"!. c #AC744E",
"~. c #A9774B",
"^. c #BC774C",
"/. c #B5774D",
"(. c #A36D54",
"). c #A96D53",
"_. c #A26D5A",
"`. c #A47354",
"'. c #AB7354",
"]. c #AA7B54",
"[. c #A4735B",
"{. c #AB755A",
"}. c #A57A5D",
"|. c #AD7A5C",
" X c #A47954",
".X c #B27354",
"XX c #B47B54",
"oX c #BB7B55",
"OX c #B2765A",
"+X c #B37B5D",
"@X c #BC7C5D",
"#X c #B16B52",
"$X c #846D63",
"%X c #8B6D61",
"&X c #866964",
"*X c #946D62",
"=X c #9C6E62",
"-X c #936A66",
";X c #8C7364",
":X c #8D766B",
">X c #857367",
",X c #947463",
"<X c #9B7462",
"1X c #9C7964",
"2X c #93776A",
"3X c #957A6B",
"4X c #9C7C6B",
"5X c #957867",
"6X c #937D72",
"7X c #A27463",
"8X c #AB7562",
"9X c #A37B63",
"0X c #AB7C63",
"qX c #A57B6A",
"wX c #B37B63",
"eX c #BA7E62",
"rX c #B17D69",
"tX c #C37E56",
"yX c #C37C59",
"uX c #C27B4E",
"iX c #B5825C",
"pX c #BD835D",
"aX c #B8855A",
"sX c #AE805F",
"dX c #9D8478",
"fX c #A58165",
"gX c #A3816C",
"hX c #AD846C",
"jX c #AB8566",
"kX c #B48264",
"lX c #BB8364",
"zX c #B2846C",
"xX c #B88968",
"cX c #BF906B",
"vX c #A88776",
"bX c #B38C74",
"nX c #B98B76",
"mX c #BB9177",
"MX c #C3825B",
"NX c #C88659",
"BX c #D08854",
"VX c #C58865",
"CX c #C69169",
"ZX c #C59476",
"AX c #D4936C",
"SX c #B29484",
"DX c #C99B81",
/* pixels */
"hXqXvXm.Q U R ) W R Y A.W pXDX0XD.Z.Z.P.(.P.n.Q _ J.[.9X{ ^ } t Z 8.M.| %XB.e.M.S.2.8.L 4 C U _ Q R e v.<X%Xa.`.k.8X7Xa.A.Q.,.3.",
"zX9XmX,XQ e.$X| e.c.9.l.U oXxXiXL.k.Z.Z.|.P.n.gX1XfXzXhXL.3XN.J e 6.v.m.e.c.e.D.m.U R L t J W t J C 0 J.I.v.v.wX{.{.F.a.A.g.&.3.",
"D.v.B.B.c.v.%X{ e.E 8.h.T ].kXkXD.Z.Z.J.}.Z.v.D.P.Z.B.D.Z.qXQ = C r.e.' R _ { M.N.C C ! r e C U I C w }.kXs.S.nX@X.X|.5.h.0.;.*.",
"Z K 4 $XSXbXbXgX3X4XvXvX3Xv.{ R W J H H J J J B.K.P.1X9X9X9XD.{ Z.[.C.7X}.}.[.|.k f Y 9.S.E W k Q r.9.l.z.5.j k 6.k 8.r 0 3.&.5.",
"N X./ >XSXbXmXbX,XvXSXvXdXK Z ~ P ! ) K { _ t fXI.hXbXzXbXqXhX9XxXCXkXkXlXVXVXAX;.=.8X_.8XS.*XF.<XF.h.l.z.0.2.5.f f T & S =X7Xv.",
"^ O.O.$XvXgXgX4X3XvX2X3X3XH K P { c.m.L ,Xc.u fX<XhXzXhXgX4X4X7X<X<XD.,XP.v.S.+XpXkX{.(.F.S.S.Z.D.7X2.s.`.j.5.0.q.5.5.Y f Z.9.v.",
"^ ` ~ m.SXvX4X$X2X5X:XdX4X} P ! K W m.m.1XW t 4X9XfX}.hXhX4XL.Z.[.F.B.M.S.M.M.A.{.lX{.F.S.=XS.D.n.7Xf ! V.C.5.3.9.*.k f T 8XF.v.",
"( ) 4 { vXgXvX:X;XL.6X2X<X` L R W Z.0X XxX}.8.7XJ.hXhXhXqX*X,Xv.lX{.<X<XF.<X<X[.8X(.C.F.S.V._.S.F.G.E _ T k.f.5.3.5.4.k *.'.Y.h.",
"^ W Z M.bX5XvX,XL.2X2X3X;Xm.B.Z.K.7XqX{.kX9Xv.9XZ.<X4X5X1XP.D.M.|.kXwXrXV.V.F.F.(.4.3.8XS.M.S.q.h.D.b ! Y d.4.5.4.*.f.%.8.wXJ.(.",
"` ) K n.mXgX3X;X2X:X:X3X2X_ Q Z.J.5XJ.}.0XZ.a.jXzX8.L.L.P.I.<XS.(.[.0X[.(.}._.A..X2.v.=Xr.S.F.V.D.*XL a.(.T.T.g.h.5.j.s.T _.s.C.",
"_ R c c.mXhXL.H.;X| ;X3XB.I Q n.Z.v.n.P.}.J.p.nXbXv.L.B.L.<XP.V.'..XeXOX'..X.X'.oXi m.-XM.V.C.y.D.M.W l.`.l.F.}.(.|.j.v.k C.a.F.",
"r.8.t s.ZXhXfX,X[ K ) ;X$X~ [ c.n.B.a.Z.Z.a.s.hXgX<XL.b.;XB.1XqXAXVXVXpX.XOXOXOX.Xi M.M.M.S.F.V.S.V.D 4.*.4.4.k 5.=.0.j i _.Z.V.",
"n.n.8.l.CXmXcX0Xa.{ N.5X;XP 5 J y R W j U C { 4Xa.L.<XD.,Xn.<Xh.,.T.`.(.j.0.3.0.9.8 9.6.Y 4.5.6.2.2.q J j a.k.h.s.f.k.U s `.h.h.",
"gXgXqXkX`.T.!.@X+X+XlX+X{.[.Z.}.aXiXpXpXVXxX`.x.[.k.K.[.P.f.l.f.[.[.[.C.[.{.[.A.(.E.^.1.U.Y.W.E.R.R.l.m.{ B.jXnX1XkXD.J j.0.0.;.",
"D.8.v.aXoX'.R.).R.T.Q.Q.x.}.9XK.~.].`.XXiXkXfX XK.f.Z.l.l.l.h.p.kX+X+X(.'.{.+XT.C.!.^.:.0.R.oXoXBXNXoXm.^ o.:X*XF.k.M.L 0.g.j.g.",
"hXD.v.|.@X{.XX`..X{.T.!.'.f.|.+X|.k.(.f.{.jXjXfXk.l d.Z.l.x.k.j {.+X`.(.(.C.{.(.Y.E.uXR.'./.tXMX^.oX'.$X..@.} m.S.0.r.J &.>.&.0.",
"jXP.M.'..X`.`.!.{.oXtXoXXXc.F.iX{.`.A.v.(.|.hX Xx.x.`.`.Q.l.x.*.`.OX(.(.j.(..Xl.0.E.BXBXyXMXNXNXMXuXR.>X} ` X.Z.|.A._ Z %.a D 8.",
"qXL.Q l.T.f.U..XaXNXNXNX/.e.<XK.n.[.9XP.k.jX}.iXx.].].Q.Q.Q.`.=.`.OX[.'.(.|.'.A.C./.AXtXW.^./.oXoX^.Y. .} } } [.{.Z._ / 5.8.Y U ",
"<XD.E J.|.'.{.+X@XyXMXpXXXm.=X8X8X+X{.{.0XhXI.|.Q.x.`.l.}.`.K.p.T.+Xl.+XwX+XOX`.C./.BXtX.XoXMXVXMX^.Y.o.o.o. .|..X(.r.S (.j.5.%.",
"5XP.U v.[.{.'.Z.L.`.{.kXXXB.P.0X}.0XP.P.xXaX X`.].~.~.x.]. X X,.`.lXh.+XkXOX+X}.{.XXNXpX.XXXMXVXNXMX'.o.o.o.| rX[.Z.c.C f.h.f.&.",
"B.J.8.D.7X9X`.Q a.}.'.+XXXD.9X|.jXsXs.P.kXiXx.xXiXiX|.].`.Q.].=.(.eXj.(.`.OX.X{.`.Q.NXpXiXiX!.XXpXVX'. .o.o.{ P.[.<XB.W 5.h.0.l.",
"P.[.v.B.<XI.0X,XrXeXlXxXT.,XSXmXzXZXxXZXnXhXJ.ZXCXcXxXaXiX].iX,.`.lX[.|.{.wXOX0X'.z.iXaXxXlX`.T.Q.R.z.N.$X;X;XB.k.a.D.c.f.0.w.0.",
"V.k.Q a.V.5.;.4.a.<.l.F.5.` [ P W H.n.a.Z.J.n.fX5X1XL.Z.n.J.L.f k.'.V.`.(.A.Y.k.f.5.h.f.j.A.C.f.h.C.f.n.8.8.v.U f C U + s g g F ",
"v.v.Q 9.[.A.T.A.(.+X+XzXj.m.;XQ R c.W c.J.v.) &X/ ~ K P L H K , J.A.Z.k.A.0X`.P.h.A.bX0X_.8X7X[._.8X&.2.q.5.2.f f U g f %.V.2.E ",
"b.c.Y 5.`.(.'.|.(.+X+XwX}.5X$X{ ) c.<XD.D.v._ | `  .m._ W [ [ 1 k.(.[.`.|.{.'.'.l.A.xX0XrX_.'.OXz.@X4.4.w.&.5.&.p s 9.%.2.4.Y f ",
"8.a.T 9.0X(.`.[.[.{.{.+X+X9XB.B.| B.a.v.Q Q R ) | { _ m.{ | ) 4 h.h.k.h.h.j.A.`.g.(.lXOXeXOX'.'.`.eX6.2.3.9.k g g y 0 q 2.y.6.R ",
"5.5.h.j.).(.(.h.S.{.+X+X'.I.b.v.{ L.D.N.N.{ { ) L _ _ _ ) } ) 4 g.g.g.g.g.z.T.T.k.A.wX+XwX+X{.}.eX@X4.2.0.9.g s k Y f f k 6.Y Y ",
"d.s.s.k.5.k.K.s.v.A.{.{.(.9X:XN.N.L.4Xm.m.W _ W V W [ [ [ } ^ b A.A.j.h.h.G.(.C.A.C.wXwXwXwX|.0XlXoX5.k &.k g k s %.g %.k 4.2.Y ",
"U U Y v.C.(.(.A.8.C.(.+X{.B.) W { v.B.m.) R Q N.L ) [ [ ..} ^ 4 k.k.k.k.f.k.Z.k.9.A.|.OX+X+X{.wX+X+XV.8.5.f a q f q w Y g q.9.9.",
"U Y T 4.h.j.`.`.s.`.).OX{.a.V Q _ B.B.%X_ R _ m.W _ m.[ ^ } ) B (.A.A.(.(.A.j.k.5.l.{.`.'.{.{.+XOXpXh.5.&.3.&.%.*.g 4.4.s s.h.S.",
"4.9.k.h.(.OXlX@Xc.A.(.8X[.{ H W _ v.B.{ W J _ _ Q Q { | ` ` ) R {.`.`.`.'.'.'.'.C.'.wX{.{.OXwXlXVXVXk.h.g.j.0.0.5.3.w.&.k Z.s.V.",
"f Y q 7 9.Z.k.s.5 y 6.r.U t v W L J a.J V e C ) ! R W K b K H O a Y Y Y T 8.8.8.2.k.Z.s.A.Z.S.[.kX|.Q 4.p.s.3.p.2.k g f Y S.9.9.",
"M P b Q 8.R F E Y g D D q s.B.v.M.) v.<XS._ 2.p.Q 8.v.s.Y T j a R V v A N m n v z Y T v.Q U y U 8.4.f 3 K K W R _ { W K b.] W ! ",
"! ] ] zX(.S.j.C.A.p.5.q.3.a.%Xr.) ) v.B.8.N.A.z.h.Z.A.k.h.F.V.p.e.R Z ( M Z ~ ~ V h.C.Z.4.T 9.D.P.bXD.v o.o.m.5XB.B.| L H.b.{ Q ",
"W v.a.zXC.q.j.C.(.A.s.q.2.4 M M.D.m.R W N.;XZ.n.h.s.4.8.a.v.v.v.m.m.P L / ^ K ' ) (.j.f.f.k.9.k.[.}.Y x $X>X5XgXn.b. .L H.] ) { ",
"V { a.<X=XS.A.F.S.V.G.G.T m m Q v.^ L ~ { v.[.V.9.V.8.T 8.8.9.s.Q W _ ( K P ~ ` ) 0X}.Z.k.Z.V.F.[.kX8.K :X$X,XL.L.H.{ H H.] P W ",
") a.s.9XF.k.A.S.q.C.(.j.s K / b.&X' Q ) ) _ [.f.h.A.k.h.s.5.f.T.8.P _ ) K W ) ~ ~ 0X}.k.k.F.A.P.}.kX8.v  .| H.n.b.1X .H c.] P H ",
") a.f.9XS.h.h.V.h.k.Z.C.9.} X.| M._ R ^ ' m.[.Z.v.Z.s.s.h.9.k.}.S.P r.G _ B.' ^ V }.{.A.h.C.j.A.}.}.j 3 N.c.] b.c.,XW J b.b.) L ",
"W v.Q.9X=Xk.9.v.v.4.n.7X9.| O.' N.` ) ` B.qXlX4.E 8.Y Y T 8.8.a.Z.H r.W _ D.` ~ K F.[.K.A.F.A.A.P.k.Y v W { B.N.W N.L H c.Q H L ",
"W a.~.A.F.h.v.r.v.5.9.S.5.9Xm._ N.| Q ` N.n.l.v.8.6.k s.n.v.T Q T } Q ^ _ T / K N S.V.V.V.S.h.Z.s.s.T K Q W m.{ W { K H v.a.H I ",
"W f.Q.F.Y.Z.V.f.8.0.F Q %._.M.8.c.m.~ ~ ~ ) A.oX+XXX`. X[.k.C.8.~ K K K ~ K v / n k s g 0.;.#.a i : e ) W ) [ [ ) a.R K ! V c 0 ",
"Q a.4.3.6.C F U f Y Y U f 9.8.Q E Q Q ! R C B.|.[.wXK.[.F.5.A.! Q Q Q T c.c.8.c.U Y S.s.s.n.<Xg.5.a.w w 8.T ! C K ! V b U t 2 j ",
"a.e.Y f.&XA ' L R A C A E 9.8.C n n K J L t M.F.r.9.8.6.9.V.9.u 8.n.n.n.F.D.S.v.9.C.qXI.N. .,XQ.Z.1Xv.y D C W W H y b 6 8.Q J v.",
"5.8.2.[.| G E Z A R A A U 8.8.c.Q _ W W H B c.V.e.r.6.6.9.9.9.u _ M.M.M.D.v.M.M.Y |.[.Z.m.[  .s.k.s.D.y C c.E Q W 8.[ b 2.y 4 Y ",
"9.8.3.D.R G E A L E A L Y 8.W Q Q 8.Q Q R C 8.r.e.S.6.V.y.3.5.u e.r.v.v.v.6.8.8.Y `.A.K.M._ &Xa.9.[.n.J H J U J y E ) H Y y V 6.",
"e.8.4.( Q R R L L Y R V f 6.W Q ~ R E U j a 6.M.r.9.9.V.C.C.5.y E 8.n.S.v.8.9.6.e.9.n.k.P.v.m.f.9.A.a.b x H t P t e e t Y V C %.",
"8.v.r.W R G B J L U ' L f Y D r y 2.k.V.4.g F t.6.y.V.V.q.h.4.D *X*X*XD.v.r.r.8.E 9.Z.d. XK.P.z.k.`.k.R V ! j U L K C j J 6 5 %.",
"5.5.7.f J F C I 4 B ' W y 9.8.R W Q 8._ E 8.%.r.9.y.A.q.3.h.2.C v.8.v.v.8.8.Y Y y f.(.Z.C.z.`.`.J.`.l.W V Q T J U J U k Z z 3 T ",
"C.Z.C.Y Y 4.D L V V Q A f w.v.Q Q ~ J j C T Y e.7.h.V.y.Y 9.2.r M.e._ W W ( U F u 9.A.s.A.k.k.K.L.A.h.8.U J U J Z 1 r Y C z 3 Y ",
"9.<XG.E E 4.6.R Z ( _ 4 x _ c.v.8.Q 8.k.9.C.9.Y 9.V.V.7.f 9.9.r Y j R C y y w D t s s.k.C.(.}.k.K.x.z.s.v.Q 8.T T U 8.4.h , h 0.",
"P.5Xs.U D Y f A B B B % * u s j 6.k 8.C.C.p.U F 6.7.9.6.f 2.#.: 9.2.E f d F T C U g 5.*.h.k.[.k.k.h.4.h 1 % & e 7 2 2 t 2 5 % T ",
"| >XR m x v n n 4 4 y w f Y i.U F j.4.=.A.2.e F Y ! f C r q - O _.F.6.2.q.Y - 3 3 Q Y w 0 D r f g #.- # X . # c   X X 1 J 4 $ . ",
"C $XU Z x V b v x B 2.*.Y Y Y.y 2.R.=.R.T.9.E Y 8.8.6.F U k s 0 j.G.E 2.&.8.U 3 # D u.g f d r #.0.w.r 3 @ . 3 v X   o 5 V 4 3 # ",
"W >XE n m K v v , x t y U 2.Y.Y %.Y.*.W.l.Y Y E Y Y 8.E Y k Y + $.j.8.2.g q r c % f #.2.d > > 3.3.w.q 1 . # @ 3 3 # # ~ 4 # o o ",
"D ;XY 1 3 5 Z b 5 m < @ u g.j.8.6.Y.s.R.h.D T R 9.2.5.2.2.%.3.q j.(.4.2.f u D % O #.:.>.$.i 9 >.&.w.q 4 % ) 3 * # v M b V 4 # o ",
"L | U * M v b n V c 3 x t ).5.k &.U.p.W.C.6.=.r.9.4.4.g Y s %.0 w.Y.2.g Y & r r 2 #.>.-.g d i -.-.:.p y F D V 4 @ b t f C 1 % = ",
"Q  .J # K L / v A V , z e C.0.T %.(.0.#Xj.2.8.M.Q E E k g g Y : 5.&.k.g i ; 3.5.u s $.p p d q i s 3.g y u A C 5 < 3 t J D C t y ",
"Q $X5 b x b m z n n b v U :.w.%.#.h.5.).j.3.8.r.8.Y Y 2.k 4.Y > 7.g 2.k i g 4.%.f g #.p p d s $.$.-.i y y D y H $ * 4 t V * 4 O ",
"R >XL c K K b 5 x c C W 4.:.U.3.&.%.%.(.C.3.8.v.6.Y 6.4.4.4.Y - 2.g #.%.g g q a r r f f d f i $.p -.9 f f D f ! $ # % e 3 , * 3 ",
"y | y . < # @ @ # t C f i g.z.3.3.5.4.h.h.Y C r C u U U U y t O 3.C.A.5.4.2.g f 9 p 3.&.>.$.$.-.3.w.s w f 6.F U # o y U O # * , ",
"H +.C K n 4 C E c.v.W & + k s.Y Y f f Y 6.u : r d > > i i d r 0 ;.z.j.;.&.3.3.s f e C 0 & 4 e t g 3.a 7 - 0 0 0 # O 7 q f t 3 3 ",
"B.;X_ B c % B _ T U B = 4 e C : = V A r w u a 2.2.p p s #.g g g f.j.w.T.T.g.0.3.V.4 # # # $ * 3 U 2.y y j u 2 & 5 j a k Y u 5 4 ",
") o.e c 3 1 V C f A = = & C C e 4 b L J r 0 q s q 7 w 8 a - - q 5.C.j.T.T.j.5.5.j.4 @ 3 # @ # 4 t y t J D 2 % 1 1 Y a k j 4 # # ",
"W Z C = 3 K V e y e 4 & 7 Y f C C 4 4 1 : e r : : 0 q d d r > r f.5.h.j.h.*.4.Y %.1 @ 4 o * 3 1 t r 2 t r 4 1 3 S U Y k t # 3 @ "
};
