/* XPM */
static char *_52aa369d32a4479b4a194ceb7bce11fGEuZbD0MKs1XFfi7[] = {
/* columns rows colors chars-per-pixel */
"64 64 77 1 ",
"  c #898A8C",
". c #8A8B8D",
"X c #8C8D8F",
"o c #8D8E90",
"O c #8E8F91",
"+ c #8F9092",
"@ c #909193",
"# c #919294",
"$ c #929395",
"% c #939496",
"& c #949597",
"* c #959698",
"= c #969799",
"- c #97989A",
"; c #98999B",
": c #999A9C",
"> c #9A9B9D",
", c #9B9C9E",
"< c #9C9D9F",
"1 c #9D9EA0",
"2 c #9E9FA1",
"3 c #9FA0A2",
"4 c #A0A1A3",
"5 c #A1A2A4",
"6 c #A2A3A5",
"7 c #A3A4A6",
"8 c #A4A5A7",
"9 c #A5A6A8",
"0 c #A6A7A9",
"q c #A7A8AA",
"w c #A8A9AB",
"e c #A9AAAC",
"r c #AAABAD",
"t c #ABACAE",
"y c #ACADAF",
"u c #ADAEB0",
"i c #AEAFB1",
"p c #AFB0B2",
"a c #B0B1B3",
"s c #B1B2B4",
"d c #B2B3B5",
"f c #B3B4B6",
"g c #B4B5B7",
"h c #B5B6B8",
"j c #B6B7B9",
"k c #B7B8BA",
"l c #B8B9BB",
"z c #B9BABC",
"x c #BABBBD",
"c c #BBBCBE",
"v c #BCBDBF",
"b c #BDBEC0",
"n c #BEBFC1",
"m c #BFC0C2",
"M c #C0C1C3",
"N c #C1C2C4",
"B c #C2C3C5",
"V c #C3C4C6",
"C c #C4C5C7",
"Z c #C5C6C8",
"A c #C6C7C9",
"S c #C7C8CA",
"D c #C8C9CB",
"F c #C9CACC",
"G c #CACBCD",
"H c #CBCCCE",
"J c #CCCDCF",
"K c #CDCED0",
"L c #CECFD1",
"P c #CFD0D2",
"I c #D0D1D3",
"U c #D1D2D4",
"Y c #D2D3D5",
"T c #D3D4D6",
"R c #D4D5D7",
"E c #D5D6D8",
"W c #D6D7D9",
/* pixels */
"NnDJNNAnlnCSNnAYVDAnnSPPACDLJVNSLLHANnmNNPYDSLFvJJAmNJPHAVDLAzNR",
"SNFHNCFAFFFHAnnVAFSMmDPIACSLHAAJVVAFLJANCLPANDVkNJRYPIPFAAHYHNSE",
"JAHJVAPHANCHJDASSFFCVFPYAASFFDHYCMnCLIFVMSFADIYHkAYYJFDSnnCHAnMJ",
"JAJLADIHlzMFLFFLFHHDSFLYFFFFDDLYPSnnNADSMCADJYEEnVSANNDJczmANzzm",
"AVLYDFLDmCJIFNVFJJJJFFJIJLHSASJLILDVNNSHFAADSAASLFAASFLYACAFSNnm",
"CNJYFFLAAJTEHNCLJHLPLDFLHLJAVSHHSJIILFFFFVCHHCVFLDSLILHFHFFFFSVM",
"SVJISFPFSFLYLSFYJFJYLSSJAHHAVDJFSFJPILFACnNPYDDIACDLLANAFAVVADAN",
"HAHLAFYPPFFJHAAFJFJYLAAHMDFCVFLFYFVVDFANAnMLLmcVSSFLAnNHDANNSLHA",
"SFHJJJLLLIFVDIFzNNSLDnnVFDACCAFHLILFFHDNJFFJDVVDAHJDVNNMCASAACAA",
"HHJHDAAAFFFDLYLSDADJDmcnAAAADHLIILAnnAHHFCCDFDFLADDCMnnmmNCACNNM",
"JJHFFSAVYLJLLSCAJDSFFVnnAASDFJLLnVAAAAVnSmcMASDHAAAVMnMNnMNCCVMn",
"FDFHLLLJLFFPFnnSFAVAFFAVSDFFFDAAjnAACVnkSvjzmNMNAVNAACAHCVVVAAVN",
"SAAFPYILMnVLHVDEFAVVSFDCAAAAACVNAAmgalNCAcglmMMNNnnAFSFPFAMMNAAA",
"FSADJLFAVCFLHDFYHHSNNAANNNNVCAAANAVzjzMNVvzmAADHnkzAFAAHDVnnNACV",
"LFADHJSNHPPFSSANDHFMnNAVCVNNNCSDjNFDVNMnCMMADSFLNlcDJANAAVMVDFCm",
"IHDFPPFANFFVVHFMMSSncNFFHFAVNNCAnASNnNDHACAFSNVFSnmLYAmVACAHIPAn",
"FAAJFCAHAFDASHDNnVNvMJLCFNVNnASjVnmASNMAIIFnvAFFMPPnzCNjzzjipknn",
"LDSFDNVDAFHSADSVSDSCAFDVFCAANFHcclcCSADLNVmjgzvzdzvjkmnglzlfgznv",
"JANNMnnNAJLDVCAAFACFFANNSNCSCHLMANVSDAAFnmnkjkjffdjcNNnzjzzjjzcl",
"VnzklzcnALPSMMCANzcADmvMMzMANDJNAACCVNNVNMnzkkjjMjkCFVczlzlddjkg",
"clgfkvmnCHLAnnNCnjkNVzjzzfvANAFVklzzvMVCMcjfddfjNjjVFmjkmmzaifjj",
"zljjvASVNDDMcnNNVnvmnkddkazANVFCnmncvNCNNzjgfdgznjkNSMcnNNzaijzz",
"lzlkMFHCNCNcznNnVVmzklgidtjVmnCNSFSmnNVmNczvcklnvvnNCVNVklgipjzz",
"jzkkMHFMNNnlzmMncMvddzliy9dmzlnnznnklNANcklmmlkczmNmnmMmriitigkj",
"jvmvvNAVAvkzmMVSNAMffnngdjzkffzNdglvnnnvllzccczzczcnNVnztypfjjdi",
"jlzzllzvnkjznnnmvMziiklpffjkznMNCMzgfjcmzzzzzzllffgznnlgddfjkkfp",
"zgjzlpalkddlcljlzvjyygjijddjnNmcAMkaidkcllkklzzcjjznMmcklkjklljf",
"ndfnzyyzjddjjffjvvkppjjdjfdjzzjddddffdddffgjkznmvnMNNMvzljjjklkj",
"zpaczyiczjdfdafznvjddjkgfgjjjjfdridjkjdpgggjkzzccvnvzjfdgdddjjjg",
"dipjgiiknlggdpgvnzfadgjgdfjkkklzkkjjggffjkkkkjgfcczkdaaadapdffdi",
"dfggdddgclkkfpdznkdddfgjkfadkzljncljffggdfjzzkgfcczjdagldddddpr9",
"jcvjfjkgkjlzjpajmlffggjlmgtygldrjkllkgdaqtdlvvzlkjgayigzgfffdi94",
"ffdpiidggjgdppdgzzzkjjjlgiiadtwrffddddddgfdfjjjfjkkjfdgjgddgdyyd",
"kjdaaddfgggdppdgjjjjgddfdyripyrydfgjjgfdjgddggdajjjgddfjfddjfiaj",
"jdipfkkjfgfdppdgfgjjgdpidtwtittidfjkkjgdljfdddpifggfaadgdadjgadk",
"atwyjczkdfdaipdgggjkkjdigywrtrrifffffggjjgddddaidffdpiadfddgdiif",
"prqtfljddddaiidjjjjlzzgalarttwqrfdpiiagkfdadfgfdddfdiiadjdddiqqy",
"dpyiaditaddpiidjjffjzckdzdiiiw9wdaiyyagjgdddjjjgdffdpiadjdddy98w",
"ppaadaappaapiidjditijljdldiddyrripaddfffkjggjjjffggdapdfjdddi99r",
"wtpdfgjlpaaiiidjiw9wpgfpjapffptytifkljfaczjjjjgdfgjfaadggdddpwwi",
"trrtpdapywriaiifddiytrttrridkljfipfkzzkjzkfdfjgfdaipadpidywrdjjd",
"dappdddpptyadipfaddffdapyyiagjfaidgklljjljddfjjgdaiipaiyjayidjdi",
"daiiiitrdppdfppfrypdfdiypiyiadaiddgjkjjfjfddfjjjfdpippyrjfadffir",
"daiiiiyrgapfdiidryiaapytpyrtippiffgjjgfdgdppdjjjjgdaaaitdapadayq",
"jfdfjkjgfpiddytpjjfddaaayrrriadagggggfddfdiidgggljfdddpyttyiiitw",
"dppdjkkjdiidayypkjdaiipprrrtpddafffffdddgdiiadfdkgddddaiqwrrtttt",
"trryaddafppddiidaappiiiyyyypddpyfdddddfggdiipddafdppaaiyrrrrrrti",
"piiidfddgaaggadgiafjjjdapipdfdirdddddfgjjdiiiapipiyyiiitiytrwrti",
"trryadpypadgggdddffaiifljjgfddddpiytypfjjprrifjjjdiiadpypdatriir",
"itrtpdaiipddddapjjgaytidgfdddfgjjgddddfgfaytiadfdpiippirryt98qq7",
"pyrriaaaipaaapiiffdpttipiiiipadfjjjjgddaaaaiyyiapiiipirq9rq63662",
"pirrriadppappiiiiiiiipdfapppaddfddfgfdiyidfdirtiiipapyw9qrw64662",
"iyrrwriapppiiippiyyipdddkkjgggggyidffdiytpddyrryiiaaitq99wq63662",
"rrrwqqriyyttyiippiyyiiyrfdapiiiitipddaiyqrttrrrrtipirq996862<44<",
"9wrw989rqq99wryitrqwttw9rrwqqwwrtyyiyrwq64469qwqrtyr8667243,,342",
"69rr978976678qry7668rtr9ttrtyiiprrrq97632>;,6998qrr93226244<<663",
"8wr9qtywyr99rrw9rriiir976689qwwqq9789986344667883367983,;<442>;-",
"8ww89rr99646qrrw998889996778899986446632666443226422332>><22>>>,",
"799669964222688862,>>27976644678632<22,;33322222962,,<,>>,,>-;,3",
"6883264<32<,>>>><>=&=>26642<,23663<<<<>->>,22466963<<,;==;>;-->2",
"264,><,->>;-=&==>;-==-;>32>;;><2642222<>>>,<23462<,,,;%O+%->;===",
">2<-=>;&$%%%$$&-==-;;-==>>-==;>,42<2232,22<,>>;;$%&=-&O.X@=-=$$@",
"=>>=&-=$+$$$++$=$%&===--&&===--;>;-;,<,>,>>-=&$$$@@$&&$+X+$$+OOO",
"&--%$==$$&=$X.X+@@@$%=>>@$%==--==%$&->;=&&%%%$$$=%$$&-;;+++X..XO"
};
